<svg xmlns="http://www.w3.org/2000/svg" xmlns:xlink="http://www.w3.org/1999/xlink" viewBox="0 0 477 477"><defs><style>.cls-1{fill:url(#Degradado_sin_nombre_22);}.cls-2,.cls-3{opacity:0.2;}.cls-3{fill:#fff;}.cls-4{fill:none;stroke:#000;stroke-miterlimit:10;stroke-width:20px;}</style><linearGradient id="Degradado_sin_nombre_22" x1="10" y1="238.5" x2="467" y2="238.5" gradientUnits="userSpaceOnUse"><stop offset="0" stop-color="#aa6eff"/><stop offset="0.50559" stop-color="#fc668a"/><stop offset="1" stop-color="#fdcb7d"/></linearGradient></defs><g id="Capa_2" data-name="Capa 2"><circle class="cls-1" cx="238.5" cy="238.5" r="228.5"/></g><g id="Capa_1" data-name="Capa 1"><path class="cls-2" d="M40.47059,322.11765s158.51364,222.32557,394.78623,40.2216l-7.12229,34.95487s-99.94093,96.69227-161.07571,86.82353S41.52941,446,40.47059,322.11765Z" transform="translate(-11.5 -11.5)"/><path class="cls-3" d="M34.56486,187.01986s207.17645-323.33894,434.247,11.21543l-24.31625-58.69495L387.54726,71.5651,319.57171,33.23575,251.68834,21.5,174.42607,35.41816,117.50474,67.52961,59.52941,125.97606Z" transform="translate(-11.5 -11.5)"/><path class="cls-4" d="M174.42607,276.67315s16.893-195.92,168.93-236.20256" transform="translate(-11.5 -11.5)"/><path class="cls-4" d="M72.179,235.32347S92.6284,94.58821,213.54669,24.70588" transform="translate(-11.5 -11.5)"/><path class="cls-4" d="M336.24319,462.58824s59.57-95.5559-31.11868-195.45524c0,0,12.44747-132.90955,99.57977-178.95012" transform="translate(-11.5 -11.5)"/><path class="cls-4" d="M429.59922,392s42.04009-114.68547-90.441-233.51295" transform="translate(-11.5 -11.5)"/><path class="cls-4" d="M377.75955,117.545s89.53647,78.97086,100.75,124.00411" transform="translate(-11.5 -11.5)"/><path class="cls-4" d="M305.12451,271.33852S112.88479,316.68288,26.83463,191.31907" transform="translate(-11.5 -11.5)"/><path class="cls-4" d="M354.15774,373.33394s-182.399,72.26917-327.32311-76.21137" transform="translate(-11.5 -11.5)"/><circle class="cls-4" cx="238.5" cy="238.5" r="228.5"/></g></svg>